<mxfile host="app.diagrams.net" modified="2022-06-10T19:45:42.922Z" agent="5.0 (Windows NT 10.0; Win64; x64) AppleWebKit/537.36 (KHTML, like Gecko) Chrome/102.0.0.0 Safari/537.36" etag="EwpAdW3C7WFAlizfGMrO" version="19.0.3" type="github">
  <diagram id="4oR8eAx7mss1e8gzUGu4" name="Page-1">
    <mxGraphModel dx="2234" dy="684" grid="1" gridSize="10" guides="1" tooltips="1" connect="1" arrows="1" fold="1" page="1" pageScale="1" pageWidth="850" pageHeight="1100" math="0" shadow="0">
      <root>
        <mxCell id="0" />
        <mxCell id="1" parent="0" />
        <mxCell id="ElRUTpvgV61J46dtp0ir-10" value="&lt;font style=&quot;font-size: 14px&quot;&gt;User Password&lt;/font&gt;" style="ellipse;whiteSpace=wrap;html=1;fontFamily=Comic Sans MS;fontSize=18;fillColor=#d5e8d4;gradientColor=#97d077;strokeColor=#82b366;" parent="1" vertex="1">
          <mxGeometry x="150" y="435" width="90" height="60" as="geometry" />
        </mxCell>
        <mxCell id="ElRUTpvgV61J46dtp0ir-11" value="&lt;font style=&quot;font-size: 14px&quot;&gt;User Email&lt;/font&gt;" style="ellipse;whiteSpace=wrap;html=1;fontFamily=Comic Sans MS;fontSize=18;fillColor=#d5e8d4;gradientColor=#97d077;strokeColor=#82b366;" parent="1" vertex="1">
          <mxGeometry x="60" y="445" width="80" height="40" as="geometry" />
        </mxCell>
        <mxCell id="ElRUTpvgV61J46dtp0ir-12" value="&lt;font style=&quot;font-size: 14px&quot;&gt;User Name&amp;nbsp;&lt;/font&gt;" style="ellipse;whiteSpace=wrap;html=1;fontFamily=Comic Sans MS;fontSize=18;fillColor=#d5e8d4;gradientColor=#97d077;strokeColor=#82b366;" parent="1" vertex="1">
          <mxGeometry x="-50" y="480" width="90" height="50" as="geometry" />
        </mxCell>
        <mxCell id="ElRUTpvgV61J46dtp0ir-13" value="" style="endArrow=none;html=1;rounded=0;fontFamily=Comic Sans MS;fontSize=18;entryX=0.5;entryY=1;entryDx=0;entryDy=0;exitX=0.43;exitY=0.01;exitDx=0;exitDy=0;exitPerimeter=0;" parent="1" source="ElRUTpvgV61J46dtp0ir-1" target="ElRUTpvgV61J46dtp0ir-10" edge="1">
          <mxGeometry width="50" height="50" relative="1" as="geometry">
            <mxPoint x="110" y="600" as="sourcePoint" />
            <mxPoint x="130" y="550" as="targetPoint" />
          </mxGeometry>
        </mxCell>
        <mxCell id="ElRUTpvgV61J46dtp0ir-14" value="" style="endArrow=none;html=1;rounded=0;fontFamily=Comic Sans MS;fontSize=18;exitX=0.44;exitY=-0.003;exitDx=0;exitDy=0;exitPerimeter=0;" parent="1" source="ElRUTpvgV61J46dtp0ir-1" edge="1">
          <mxGeometry width="50" height="50" relative="1" as="geometry">
            <mxPoint x="110" y="600" as="sourcePoint" />
            <mxPoint x="100" y="480" as="targetPoint" />
          </mxGeometry>
        </mxCell>
        <mxCell id="ElRUTpvgV61J46dtp0ir-15" value="" style="endArrow=none;html=1;rounded=0;fontFamily=Comic Sans MS;fontSize=18;entryX=1;entryY=0.5;entryDx=0;entryDy=0;startArrow=none;exitX=0.427;exitY=-0.003;exitDx=0;exitDy=0;exitPerimeter=0;" parent="1" source="ElRUTpvgV61J46dtp0ir-1" target="ElRUTpvgV61J46dtp0ir-12" edge="1">
          <mxGeometry width="50" height="50" relative="1" as="geometry">
            <mxPoint x="110" y="600" as="sourcePoint" />
            <mxPoint x="8.28427124746213" y="544.1421356237311" as="targetPoint" />
          </mxGeometry>
        </mxCell>
        <mxCell id="ElRUTpvgV61J46dtp0ir-1" value="&lt;font style=&quot;font-size: 18px&quot; face=&quot;Comic Sans MS&quot;&gt;USERS&lt;/font&gt;" style="rounded=0;whiteSpace=wrap;html=1;fillColor=#e51400;fontColor=#ffffff;strokeColor=#B20000;" parent="1" vertex="1">
          <mxGeometry x="70" y="600" width="120" height="60" as="geometry" />
        </mxCell>
        <mxCell id="ElRUTpvgV61J46dtp0ir-17" value="" style="endArrow=none;html=1;rounded=0;fontFamily=Comic Sans MS;fontSize=14;entryX=0;entryY=0.5;entryDx=0;entryDy=0;" parent="1" target="ElRUTpvgV61J46dtp0ir-26" edge="1">
          <mxGeometry width="50" height="50" relative="1" as="geometry">
            <mxPoint x="190" y="630" as="sourcePoint" />
            <mxPoint x="380" y="480" as="targetPoint" />
            <Array as="points" />
          </mxGeometry>
        </mxCell>
        <mxCell id="ElRUTpvgV61J46dtp0ir-84" value="M" style="edgeLabel;html=1;align=center;verticalAlign=middle;resizable=0;points=[];fontSize=14;fontFamily=Comic Sans MS;" parent="ElRUTpvgV61J46dtp0ir-17" vertex="1" connectable="0">
          <mxGeometry x="0.1387" y="-1" relative="1" as="geometry">
            <mxPoint as="offset" />
          </mxGeometry>
        </mxCell>
        <mxCell id="ElRUTpvgV61J46dtp0ir-18" value="" style="endArrow=none;html=1;rounded=0;fontFamily=Comic Sans MS;fontSize=14;exitX=1;exitY=0.5;exitDx=0;exitDy=0;" parent="1" source="ElRUTpvgV61J46dtp0ir-1" target="ElRUTpvgV61J46dtp0ir-20" edge="1">
          <mxGeometry width="50" height="50" relative="1" as="geometry">
            <mxPoint x="190" y="660" as="sourcePoint" />
            <mxPoint x="400" y="630" as="targetPoint" />
          </mxGeometry>
        </mxCell>
        <mxCell id="ElRUTpvgV61J46dtp0ir-25" value="1" style="edgeLabel;html=1;align=center;verticalAlign=middle;resizable=0;points=[];fontSize=14;fontFamily=Comic Sans MS;" parent="ElRUTpvgV61J46dtp0ir-18" vertex="1" connectable="0">
          <mxGeometry x="0.539" y="1" relative="1" as="geometry">
            <mxPoint as="offset" />
          </mxGeometry>
        </mxCell>
        <mxCell id="ElRUTpvgV61J46dtp0ir-20" value="PROCESS" style="rhombus;whiteSpace=wrap;html=1;fontFamily=Comic Sans MS;fontSize=14;fillColor=#ffcd28;gradientColor=#ffa500;strokeColor=#d79b00;" parent="1" vertex="1">
          <mxGeometry x="400" y="590" width="100" height="80" as="geometry" />
        </mxCell>
        <mxCell id="ElRUTpvgV61J46dtp0ir-23" value="" style="endArrow=none;html=1;rounded=0;fontFamily=Comic Sans MS;fontSize=14;exitX=1;exitY=0.5;exitDx=0;exitDy=0;entryX=0;entryY=0.5;entryDx=0;entryDy=0;" parent="1" source="ElRUTpvgV61J46dtp0ir-1" target="ElRUTpvgV61J46dtp0ir-27" edge="1">
          <mxGeometry width="50" height="50" relative="1" as="geometry">
            <mxPoint x="190" y="630" as="sourcePoint" />
            <mxPoint x="380" y="750.4878048780488" as="targetPoint" />
          </mxGeometry>
        </mxCell>
        <mxCell id="ElRUTpvgV61J46dtp0ir-29" value="M" style="edgeLabel;html=1;align=center;verticalAlign=middle;resizable=0;points=[];fontSize=14;fontFamily=Comic Sans MS;" parent="ElRUTpvgV61J46dtp0ir-23" vertex="1" connectable="0">
          <mxGeometry x="0.6085" y="-2" relative="1" as="geometry">
            <mxPoint as="offset" />
          </mxGeometry>
        </mxCell>
        <mxCell id="DbBbhRMSSOa6X9QHdNMr-18" value="" style="edgeStyle=orthogonalEdgeStyle;rounded=0;orthogonalLoop=1;jettySize=auto;html=1;fontStyle=1" parent="1" source="ElRUTpvgV61J46dtp0ir-26" edge="1">
          <mxGeometry relative="1" as="geometry">
            <mxPoint x="450" y="325" as="targetPoint" />
          </mxGeometry>
        </mxCell>
        <mxCell id="VwA648GKsSek5Qf0YUTY-1" value="&lt;b&gt;M&lt;/b&gt;" style="edgeLabel;html=1;align=center;verticalAlign=middle;resizable=0;points=[];" vertex="1" connectable="0" parent="DbBbhRMSSOa6X9QHdNMr-18">
          <mxGeometry x="-0.2356" y="1" relative="1" as="geometry">
            <mxPoint as="offset" />
          </mxGeometry>
        </mxCell>
        <mxCell id="ElRUTpvgV61J46dtp0ir-26" value="VIEW" style="rhombus;whiteSpace=wrap;html=1;fontFamily=Comic Sans MS;fontSize=14;fillColor=#ffcd28;gradientColor=#ffa500;strokeColor=#d79b00;" parent="1" vertex="1">
          <mxGeometry x="410" y="415" width="80" height="80" as="geometry" />
        </mxCell>
        <mxCell id="ElRUTpvgV61J46dtp0ir-27" value="HAS" style="rhombus;whiteSpace=wrap;html=1;fontFamily=Comic Sans MS;fontSize=14;fillColor=#ffcd28;gradientColor=#ffa500;strokeColor=#d79b00;" parent="1" vertex="1">
          <mxGeometry x="410" y="740" width="80" height="80" as="geometry" />
        </mxCell>
        <mxCell id="ElRUTpvgV61J46dtp0ir-30" value="" style="endArrow=none;html=1;rounded=0;fontFamily=Comic Sans MS;fontSize=14;exitX=1;exitY=0.5;exitDx=0;exitDy=0;entryX=0;entryY=0.5;entryDx=0;entryDy=0;" parent="1" source="ElRUTpvgV61J46dtp0ir-26" target="ElRUTpvgV61J46dtp0ir-33" edge="1">
          <mxGeometry width="50" height="50" relative="1" as="geometry">
            <mxPoint x="490" y="490" as="sourcePoint" />
            <mxPoint x="720" y="620" as="targetPoint" />
          </mxGeometry>
        </mxCell>
        <mxCell id="ElRUTpvgV61J46dtp0ir-83" value="M" style="edgeLabel;html=1;align=center;verticalAlign=middle;resizable=0;points=[];fontSize=14;fontFamily=Comic Sans MS;" parent="ElRUTpvgV61J46dtp0ir-30" vertex="1" connectable="0">
          <mxGeometry x="-0.132" relative="1" as="geometry">
            <mxPoint as="offset" />
          </mxGeometry>
        </mxCell>
        <mxCell id="ElRUTpvgV61J46dtp0ir-31" value="" style="endArrow=none;html=1;rounded=0;fontFamily=Comic Sans MS;fontSize=14;exitX=1;exitY=0.5;exitDx=0;exitDy=0;entryX=0;entryY=0.5;entryDx=0;entryDy=0;" parent="1" source="ElRUTpvgV61J46dtp0ir-20" target="ElRUTpvgV61J46dtp0ir-33" edge="1">
          <mxGeometry width="50" height="50" relative="1" as="geometry">
            <mxPoint x="500" y="650" as="sourcePoint" />
            <mxPoint x="720" y="630" as="targetPoint" />
          </mxGeometry>
        </mxCell>
        <mxCell id="ElRUTpvgV61J46dtp0ir-82" value="N" style="edgeLabel;html=1;align=center;verticalAlign=middle;resizable=0;points=[];fontSize=14;fontFamily=Comic Sans MS;" parent="ElRUTpvgV61J46dtp0ir-31" vertex="1" connectable="0">
          <mxGeometry x="-0.1562" y="-2" relative="1" as="geometry">
            <mxPoint as="offset" />
          </mxGeometry>
        </mxCell>
        <mxCell id="ElRUTpvgV61J46dtp0ir-32" value="" style="endArrow=none;html=1;rounded=0;fontFamily=Comic Sans MS;fontSize=14;exitX=1;exitY=0.5;exitDx=0;exitDy=0;entryX=0;entryY=0.5;entryDx=0;entryDy=0;" parent="1" source="ElRUTpvgV61J46dtp0ir-27" target="ElRUTpvgV61J46dtp0ir-33" edge="1">
          <mxGeometry width="50" height="50" relative="1" as="geometry">
            <mxPoint x="520" y="820" as="sourcePoint" />
            <mxPoint x="720" y="640" as="targetPoint" />
          </mxGeometry>
        </mxCell>
        <mxCell id="ElRUTpvgV61J46dtp0ir-85" value="M" style="edgeLabel;html=1;align=center;verticalAlign=middle;resizable=0;points=[];fontSize=14;fontFamily=Comic Sans MS;" parent="ElRUTpvgV61J46dtp0ir-32" vertex="1" connectable="0">
          <mxGeometry x="-0.1494" y="2" relative="1" as="geometry">
            <mxPoint as="offset" />
          </mxGeometry>
        </mxCell>
        <mxCell id="ElRUTpvgV61J46dtp0ir-33" value="&lt;font style=&quot;font-size: 18px&quot; face=&quot;Comic Sans MS&quot;&gt;RECIPE&lt;/font&gt;" style="rounded=0;whiteSpace=wrap;html=1;fillColor=#e51400;strokeColor=#B20000;fontColor=#ffffff;" parent="1" vertex="1">
          <mxGeometry x="710" y="600" width="120" height="60" as="geometry" />
        </mxCell>
        <mxCell id="ElRUTpvgV61J46dtp0ir-34" value="" style="endArrow=none;html=1;rounded=0;fontFamily=Comic Sans MS;fontSize=14;exitX=0.5;exitY=0;exitDx=0;exitDy=0;entryX=0.5;entryY=1;entryDx=0;entryDy=0;" parent="1" source="ElRUTpvgV61J46dtp0ir-33" target="ElRUTpvgV61J46dtp0ir-55" edge="1">
          <mxGeometry width="50" height="50" relative="1" as="geometry">
            <mxPoint x="740" y="600" as="sourcePoint" />
            <mxPoint x="770" y="500" as="targetPoint" />
          </mxGeometry>
        </mxCell>
        <mxCell id="ElRUTpvgV61J46dtp0ir-77" value="M" style="edgeLabel;html=1;align=center;verticalAlign=middle;resizable=0;points=[];fontSize=14;fontFamily=Comic Sans MS;" parent="ElRUTpvgV61J46dtp0ir-34" vertex="1" connectable="0">
          <mxGeometry x="-0.2514" relative="1" as="geometry">
            <mxPoint as="offset" />
          </mxGeometry>
        </mxCell>
        <mxCell id="ElRUTpvgV61J46dtp0ir-35" value="" style="endArrow=none;html=1;rounded=0;fontFamily=Comic Sans MS;fontSize=14;entryX=0.5;entryY=1;entryDx=0;entryDy=0;exitX=0.617;exitY=0.022;exitDx=0;exitDy=0;exitPerimeter=0;" parent="1" source="ElRUTpvgV61J46dtp0ir-52" target="ElRUTpvgV61J46dtp0ir-33" edge="1">
          <mxGeometry width="50" height="50" relative="1" as="geometry">
            <mxPoint x="640" y="730" as="sourcePoint" />
            <mxPoint x="780" y="670" as="targetPoint" />
          </mxGeometry>
        </mxCell>
        <mxCell id="ElRUTpvgV61J46dtp0ir-36" value="" style="endArrow=none;html=1;rounded=0;fontFamily=Comic Sans MS;fontSize=14;entryX=0.5;entryY=1;entryDx=0;entryDy=0;" parent="1" target="ElRUTpvgV61J46dtp0ir-33" edge="1">
          <mxGeometry width="50" height="50" relative="1" as="geometry">
            <mxPoint x="770" y="740" as="sourcePoint" />
            <mxPoint x="830" y="680" as="targetPoint" />
          </mxGeometry>
        </mxCell>
        <mxCell id="ElRUTpvgV61J46dtp0ir-37" value="" style="endArrow=none;html=1;rounded=0;fontFamily=Comic Sans MS;fontSize=14;exitX=0.347;exitY=0.025;exitDx=0;exitDy=0;exitPerimeter=0;" parent="1" source="ElRUTpvgV61J46dtp0ir-54" edge="1">
          <mxGeometry width="50" height="50" relative="1" as="geometry">
            <mxPoint x="880" y="720" as="sourcePoint" />
            <mxPoint x="770" y="660" as="targetPoint" />
          </mxGeometry>
        </mxCell>
        <mxCell id="ElRUTpvgV61J46dtp0ir-38" value="" style="endArrow=none;html=1;rounded=0;fontFamily=Comic Sans MS;fontSize=14;entryX=0;entryY=0.5;entryDx=0;entryDy=0;" parent="1" source="ElRUTpvgV61J46dtp0ir-33" target="ElRUTpvgV61J46dtp0ir-43" edge="1">
          <mxGeometry width="50" height="50" relative="1" as="geometry">
            <mxPoint x="830" y="680" as="sourcePoint" />
            <mxPoint x="1040" y="630" as="targetPoint" />
            <Array as="points" />
          </mxGeometry>
        </mxCell>
        <mxCell id="ElRUTpvgV61J46dtp0ir-43" value="OF" style="rhombus;whiteSpace=wrap;html=1;fontFamily=Comic Sans MS;fontSize=14;fillColor=#ffcd28;gradientColor=#ffa500;strokeColor=#d79b00;" parent="1" vertex="1">
          <mxGeometry x="940" y="590" width="80" height="80" as="geometry" />
        </mxCell>
        <mxCell id="ElRUTpvgV61J46dtp0ir-44" value="" style="endArrow=none;html=1;rounded=0;fontFamily=Comic Sans MS;fontSize=14;exitX=1;exitY=0.5;exitDx=0;exitDy=0;entryX=0;entryY=0.5;entryDx=0;entryDy=0;" parent="1" source="ElRUTpvgV61J46dtp0ir-43" target="ElRUTpvgV61J46dtp0ir-45" edge="1">
          <mxGeometry width="50" height="50" relative="1" as="geometry">
            <mxPoint x="1080" y="660" as="sourcePoint" />
            <mxPoint x="1100" y="630" as="targetPoint" />
            <Array as="points" />
          </mxGeometry>
        </mxCell>
        <mxCell id="ElRUTpvgV61J46dtp0ir-45" value="UPLOADS" style="rounded=0;whiteSpace=wrap;html=1;fontFamily=Comic Sans MS;fontSize=14;fillColor=#e51400;strokeColor=#B20000;fontColor=#ffffff;" parent="1" vertex="1">
          <mxGeometry x="1090" y="600" width="120" height="60" as="geometry" />
        </mxCell>
        <mxCell id="ElRUTpvgV61J46dtp0ir-48" value="" style="endArrow=none;html=1;rounded=0;fontFamily=Comic Sans MS;fontSize=14;exitX=1;exitY=0.5;exitDx=0;exitDy=0;entryX=0.032;entryY=0.684;entryDx=0;entryDy=0;entryPerimeter=0;" parent="1" source="ElRUTpvgV61J46dtp0ir-45" target="ElRUTpvgV61J46dtp0ir-50" edge="1">
          <mxGeometry width="50" height="50" relative="1" as="geometry">
            <mxPoint x="1210" y="650" as="sourcePoint" />
            <mxPoint x="1290" y="590" as="targetPoint" />
          </mxGeometry>
        </mxCell>
        <mxCell id="ElRUTpvgV61J46dtp0ir-49" value="" style="endArrow=none;html=1;rounded=0;fontFamily=Comic Sans MS;fontSize=14;exitX=1;exitY=0.5;exitDx=0;exitDy=0;entryX=0.047;entryY=0.287;entryDx=0;entryDy=0;entryPerimeter=0;" parent="1" source="ElRUTpvgV61J46dtp0ir-45" target="ElRUTpvgV61J46dtp0ir-51" edge="1">
          <mxGeometry width="50" height="50" relative="1" as="geometry">
            <mxPoint x="1230" y="690" as="sourcePoint" />
            <mxPoint x="1280" y="670" as="targetPoint" />
          </mxGeometry>
        </mxCell>
        <mxCell id="ElRUTpvgV61J46dtp0ir-50" value="Image" style="ellipse;whiteSpace=wrap;html=1;fontFamily=Comic Sans MS;fontSize=14;" parent="1" vertex="1">
          <mxGeometry x="1260" y="560" width="100" height="50" as="geometry" />
        </mxCell>
        <mxCell id="ElRUTpvgV61J46dtp0ir-51" value="Videos" style="ellipse;whiteSpace=wrap;html=1;fontFamily=Comic Sans MS;fontSize=14;" parent="1" vertex="1">
          <mxGeometry x="1260" y="640" width="100" height="50" as="geometry" />
        </mxCell>
        <mxCell id="ElRUTpvgV61J46dtp0ir-52" value="Recipe Name&amp;nbsp;" style="ellipse;whiteSpace=wrap;html=1;fontFamily=Comic Sans MS;fontSize=14;fillColor=#d5e8d4;gradientColor=#97d077;strokeColor=#82b366;" parent="1" vertex="1">
          <mxGeometry x="560" y="730" width="100" height="60" as="geometry" />
        </mxCell>
        <mxCell id="ElRUTpvgV61J46dtp0ir-53" value="Recipe ID" style="ellipse;whiteSpace=wrap;html=1;fontFamily=Comic Sans MS;fontSize=14;fillColor=#d5e8d4;gradientColor=#97d077;strokeColor=#82b366;" parent="1" vertex="1">
          <mxGeometry x="720" y="740" width="100" height="60" as="geometry" />
        </mxCell>
        <mxCell id="ElRUTpvgV61J46dtp0ir-54" value="Recipe Description" style="ellipse;whiteSpace=wrap;html=1;fontFamily=Comic Sans MS;fontSize=14;fillColor=#d5e8d4;gradientColor=#97d077;strokeColor=#82b366;" parent="1" vertex="1">
          <mxGeometry x="880" y="740" width="110" height="55" as="geometry" />
        </mxCell>
        <mxCell id="ElRUTpvgV61J46dtp0ir-55" value="OF" style="rhombus;whiteSpace=wrap;html=1;fontFamily=Comic Sans MS;fontSize=14;fillColor=#ffcd28;gradientColor=#ffa500;strokeColor=#d79b00;" parent="1" vertex="1">
          <mxGeometry x="730" y="450" width="80" height="80" as="geometry" />
        </mxCell>
        <mxCell id="ElRUTpvgV61J46dtp0ir-57" value="" style="endArrow=none;html=1;rounded=0;fontFamily=Comic Sans MS;fontSize=14;exitX=0.5;exitY=0;exitDx=0;exitDy=0;entryX=0.5;entryY=1;entryDx=0;entryDy=0;" parent="1" source="ElRUTpvgV61J46dtp0ir-55" target="ElRUTpvgV61J46dtp0ir-58" edge="1">
          <mxGeometry width="50" height="50" relative="1" as="geometry">
            <mxPoint x="750" y="440" as="sourcePoint" />
            <mxPoint x="770" y="390" as="targetPoint" />
          </mxGeometry>
        </mxCell>
        <mxCell id="ElRUTpvgV61J46dtp0ir-78" value="M" style="edgeLabel;html=1;align=center;verticalAlign=middle;resizable=0;points=[];fontSize=14;fontFamily=Comic Sans MS;" parent="ElRUTpvgV61J46dtp0ir-57" vertex="1" connectable="0">
          <mxGeometry x="-0.46" y="-1" relative="1" as="geometry">
            <mxPoint as="offset" />
          </mxGeometry>
        </mxCell>
        <mxCell id="ElRUTpvgV61J46dtp0ir-58" value="CATEGORY" style="rounded=0;whiteSpace=wrap;html=1;fontFamily=Comic Sans MS;fontSize=14;fillColor=#e51400;strokeColor=#B20000;fontColor=#ffffff;" parent="1" vertex="1">
          <mxGeometry x="720" y="340" width="100" height="50" as="geometry" />
        </mxCell>
        <mxCell id="ElRUTpvgV61J46dtp0ir-59" value="" style="endArrow=none;html=1;rounded=0;fontFamily=Comic Sans MS;fontSize=14;exitX=0.5;exitY=0;exitDx=0;exitDy=0;entryX=0.313;entryY=1.003;entryDx=0;entryDy=0;entryPerimeter=0;" parent="1" source="ElRUTpvgV61J46dtp0ir-58" target="ElRUTpvgV61J46dtp0ir-62" edge="1">
          <mxGeometry width="50" height="50" relative="1" as="geometry">
            <mxPoint x="780" y="330" as="sourcePoint" />
            <mxPoint x="800" y="270" as="targetPoint" />
          </mxGeometry>
        </mxCell>
        <mxCell id="ElRUTpvgV61J46dtp0ir-60" value="" style="endArrow=none;html=1;rounded=0;fontFamily=Comic Sans MS;fontSize=14;exitX=0.5;exitY=0;exitDx=0;exitDy=0;entryX=0.5;entryY=1;entryDx=0;entryDy=0;" parent="1" source="ElRUTpvgV61J46dtp0ir-58" target="ElRUTpvgV61J46dtp0ir-63" edge="1">
          <mxGeometry width="50" height="50" relative="1" as="geometry">
            <mxPoint x="710" y="300" as="sourcePoint" />
            <mxPoint x="760" y="250" as="targetPoint" />
          </mxGeometry>
        </mxCell>
        <mxCell id="ElRUTpvgV61J46dtp0ir-61" value="" style="endArrow=none;html=1;rounded=0;fontFamily=Comic Sans MS;fontSize=14;exitX=0.5;exitY=0;exitDx=0;exitDy=0;entryX=0.66;entryY=1.028;entryDx=0;entryDy=0;entryPerimeter=0;" parent="1" source="ElRUTpvgV61J46dtp0ir-58" target="ElRUTpvgV61J46dtp0ir-64" edge="1">
          <mxGeometry width="50" height="50" relative="1" as="geometry">
            <mxPoint x="680" y="310" as="sourcePoint" />
            <mxPoint x="730" y="260" as="targetPoint" />
          </mxGeometry>
        </mxCell>
        <mxCell id="ElRUTpvgV61J46dtp0ir-62" value="Title" style="ellipse;whiteSpace=wrap;html=1;fontFamily=Comic Sans MS;fontSize=14;fillColor=#d5e8d4;gradientColor=#97d077;strokeColor=#82b366;" parent="1" vertex="1">
          <mxGeometry x="850" y="220" width="100" height="50" as="geometry" />
        </mxCell>
        <mxCell id="ElRUTpvgV61J46dtp0ir-63" value="Category Description" style="ellipse;whiteSpace=wrap;html=1;fontFamily=Comic Sans MS;fontSize=14;fillColor=#d5e8d4;gradientColor=#97d077;strokeColor=#82b366;" parent="1" vertex="1">
          <mxGeometry x="710" y="200" width="120" height="60" as="geometry" />
        </mxCell>
        <mxCell id="ElRUTpvgV61J46dtp0ir-64" value="Category ID" style="ellipse;whiteSpace=wrap;html=1;fontFamily=Comic Sans MS;fontSize=14;fillColor=#d5e8d4;gradientColor=#97d077;strokeColor=#82b366;" parent="1" vertex="1">
          <mxGeometry x="570" y="210" width="100" height="60" as="geometry" />
        </mxCell>
        <mxCell id="ElRUTpvgV61J46dtp0ir-65" value="" style="endArrow=none;html=1;rounded=0;fontFamily=Comic Sans MS;fontSize=14;entryX=0.5;entryY=1;entryDx=0;entryDy=0;exitX=0.5;exitY=0;exitDx=0;exitDy=0;" parent="1" source="ElRUTpvgV61J46dtp0ir-66" target="ElRUTpvgV61J46dtp0ir-27" edge="1">
          <mxGeometry width="50" height="50" relative="1" as="geometry">
            <mxPoint x="450" y="880" as="sourcePoint" />
            <mxPoint x="470" y="830" as="targetPoint" />
            <Array as="points">
              <mxPoint x="450" y="850" />
            </Array>
          </mxGeometry>
        </mxCell>
        <mxCell id="ElRUTpvgV61J46dtp0ir-86" value="M" style="edgeLabel;html=1;align=center;verticalAlign=middle;resizable=0;points=[];fontSize=14;fontFamily=Comic Sans MS;" parent="ElRUTpvgV61J46dtp0ir-65" vertex="1" connectable="0">
          <mxGeometry x="-0.025" relative="1" as="geometry">
            <mxPoint as="offset" />
          </mxGeometry>
        </mxCell>
        <mxCell id="ElRUTpvgV61J46dtp0ir-66" value="Add to page" style="rounded=0;whiteSpace=wrap;html=1;fontFamily=Comic Sans MS;fontSize=14;fillColor=#e51400;fontColor=#ffffff;strokeColor=#B20000;" parent="1" vertex="1">
          <mxGeometry x="390" y="900" width="120" height="60" as="geometry" />
        </mxCell>
        <mxCell id="ElRUTpvgV61J46dtp0ir-67" value="" style="endArrow=none;html=1;rounded=0;fontFamily=Comic Sans MS;fontSize=14;entryX=0.5;entryY=1;entryDx=0;entryDy=0;exitX=0.5;exitY=0;exitDx=0;exitDy=0;" parent="1" source="ElRUTpvgV61J46dtp0ir-71" target="ElRUTpvgV61J46dtp0ir-66" edge="1">
          <mxGeometry width="50" height="50" relative="1" as="geometry">
            <mxPoint x="410" y="1010" as="sourcePoint" />
            <mxPoint x="460" y="960" as="targetPoint" />
          </mxGeometry>
        </mxCell>
        <mxCell id="ElRUTpvgV61J46dtp0ir-71" value="Page ID" style="ellipse;whiteSpace=wrap;html=1;fontFamily=Comic Sans MS;fontSize=14;fillColor=#d5e8d4;gradientColor=#97d077;strokeColor=#82b366;" parent="1" vertex="1">
          <mxGeometry x="405" y="1030" width="90" height="50" as="geometry" />
        </mxCell>
        <mxCell id="ElRUTpvgV61J46dtp0ir-75" value="" style="endArrow=none;html=1;rounded=0;fontFamily=Comic Sans MS;fontSize=14;startArrow=none;" parent="1" source="ElRUTpvgV61J46dtp0ir-74" edge="1">
          <mxGeometry width="50" height="50" relative="1" as="geometry">
            <mxPoint x="1000" y="730" as="sourcePoint" />
            <mxPoint x="770" y="660" as="targetPoint" />
          </mxGeometry>
        </mxCell>
        <mxCell id="ElRUTpvgV61J46dtp0ir-74" value="Ingredients" style="ellipse;whiteSpace=wrap;html=1;fontFamily=Comic Sans MS;fontSize=14;fillColor=#d5e8d4;gradientColor=#97d077;strokeColor=#82b366;" parent="1" vertex="1">
          <mxGeometry x="1030" y="720" width="100" height="60" as="geometry" />
        </mxCell>
        <mxCell id="ElRUTpvgV61J46dtp0ir-79" value="Image" style="ellipse;whiteSpace=wrap;html=1;fontFamily=Comic Sans MS;fontSize=14;fillColor=#d5e8d4;gradientColor=#97d077;strokeColor=#82b366;" parent="1" vertex="1">
          <mxGeometry x="1250" y="560" width="120" height="50" as="geometry" />
        </mxCell>
        <mxCell id="ElRUTpvgV61J46dtp0ir-80" value="" style="ellipse;whiteSpace=wrap;html=1;fontFamily=Comic Sans MS;fontSize=14;fillColor=#d5e8d4;gradientColor=#97d077;strokeColor=#82b366;" parent="1" vertex="1">
          <mxGeometry x="1250" y="640" width="120" height="50" as="geometry" />
        </mxCell>
        <mxCell id="ElRUTpvgV61J46dtp0ir-88" value="M" style="text;html=1;align=center;verticalAlign=middle;resizable=0;points=[];autosize=1;strokeColor=none;fillColor=none;fontSize=14;fontFamily=Comic Sans MS;" parent="1" vertex="1">
          <mxGeometry x="1035" y="630" width="30" height="20" as="geometry" />
        </mxCell>
        <mxCell id="ElRUTpvgV61J46dtp0ir-89" value="1" style="text;html=1;align=center;verticalAlign=middle;resizable=0;points=[];autosize=1;strokeColor=none;fillColor=none;fontSize=14;fontFamily=Comic Sans MS;" parent="1" vertex="1">
          <mxGeometry x="880" y="630" width="20" height="20" as="geometry" />
        </mxCell>
        <mxCell id="DbBbhRMSSOa6X9QHdNMr-1" value="" style="endArrow=none;html=1;rounded=0;exitX=0.5;exitY=0;exitDx=0;exitDy=0;" parent="1" source="ElRUTpvgV61J46dtp0ir-45" edge="1">
          <mxGeometry width="50" height="50" relative="1" as="geometry">
            <mxPoint x="1120" y="600" as="sourcePoint" />
            <mxPoint x="1150" y="560" as="targetPoint" />
          </mxGeometry>
        </mxCell>
        <mxCell id="DbBbhRMSSOa6X9QHdNMr-4" value="" style="endArrow=none;html=1;rounded=0;" parent="1" edge="1">
          <mxGeometry width="50" height="50" relative="1" as="geometry">
            <mxPoint x="1150" y="480" as="sourcePoint" />
            <mxPoint x="1150" y="440" as="targetPoint" />
          </mxGeometry>
        </mxCell>
        <mxCell id="DbBbhRMSSOa6X9QHdNMr-6" value="" style="endArrow=none;html=1;rounded=0;entryX=0.335;entryY=0.996;entryDx=0;entryDy=0;entryPerimeter=0;exitX=0.5;exitY=0;exitDx=0;exitDy=0;" parent="1" source="DbBbhRMSSOa6X9QHdNMr-14" target="DbBbhRMSSOa6X9QHdNMr-11" edge="1">
          <mxGeometry width="50" height="50" relative="1" as="geometry">
            <mxPoint x="1140" y="380" as="sourcePoint" />
            <mxPoint x="1220" y="310" as="targetPoint" />
          </mxGeometry>
        </mxCell>
        <mxCell id="DbBbhRMSSOa6X9QHdNMr-7" value="" style="endArrow=none;html=1;rounded=0;exitX=0.5;exitY=0;exitDx=0;exitDy=0;entryX=0.423;entryY=1.044;entryDx=0;entryDy=0;entryPerimeter=0;" parent="1" source="DbBbhRMSSOa6X9QHdNMr-14" target="DbBbhRMSSOa6X9QHdNMr-12" edge="1">
          <mxGeometry width="50" height="50" relative="1" as="geometry">
            <mxPoint x="1140.7600000000002" y="378.20000000000005" as="sourcePoint" />
            <mxPoint x="1140" y="300" as="targetPoint" />
          </mxGeometry>
        </mxCell>
        <mxCell id="DbBbhRMSSOa6X9QHdNMr-8" value="" style="endArrow=none;html=1;rounded=0;exitX=0.5;exitY=0;exitDx=0;exitDy=0;entryX=0.5;entryY=1;entryDx=0;entryDy=0;" parent="1" source="DbBbhRMSSOa6X9QHdNMr-14" target="DbBbhRMSSOa6X9QHdNMr-13" edge="1">
          <mxGeometry width="50" height="50" relative="1" as="geometry">
            <mxPoint x="1145" y="380" as="sourcePoint" />
            <mxPoint x="1065" y="310" as="targetPoint" />
            <Array as="points" />
          </mxGeometry>
        </mxCell>
        <mxCell id="DbBbhRMSSOa6X9QHdNMr-11" value="Recipe" style="ellipse;whiteSpace=wrap;html=1;fontFamily=Comic Sans MS;fontSize=14;fillColor=#d5e8d4;gradientColor=#97d077;strokeColor=#82b366;" parent="1" vertex="1">
          <mxGeometry x="1230" y="280" width="120" height="50" as="geometry" />
        </mxCell>
        <mxCell id="DbBbhRMSSOa6X9QHdNMr-12" value="Title" style="ellipse;whiteSpace=wrap;html=1;fontFamily=Comic Sans MS;fontSize=14;fillColor=#d5e8d4;gradientColor=#97d077;strokeColor=#82b366;" parent="1" vertex="1">
          <mxGeometry x="1100" y="250" width="120" height="50" as="geometry" />
        </mxCell>
        <mxCell id="DbBbhRMSSOa6X9QHdNMr-13" value="Ingredients&amp;nbsp;" style="ellipse;whiteSpace=wrap;html=1;fontFamily=Comic Sans MS;fontSize=14;fillColor=#d5e8d4;gradientColor=#97d077;strokeColor=#82b366;" parent="1" vertex="1">
          <mxGeometry x="960" y="270" width="120" height="50" as="geometry" />
        </mxCell>
        <mxCell id="DbBbhRMSSOa6X9QHdNMr-14" value="UPDATE" style="rounded=0;whiteSpace=wrap;html=1;fontFamily=Comic Sans MS;fontSize=14;fillColor=#e51400;strokeColor=#B20000;fontColor=#ffffff;" parent="1" vertex="1">
          <mxGeometry x="1100" y="390" width="100" height="50" as="geometry" />
        </mxCell>
        <mxCell id="DbBbhRMSSOa6X9QHdNMr-16" value="OF" style="rhombus;whiteSpace=wrap;html=1;fontFamily=Comic Sans MS;fontSize=14;fillColor=#ffcd28;gradientColor=#ffa500;strokeColor=#d79b00;" parent="1" vertex="1">
          <mxGeometry x="1110" y="480" width="80" height="80" as="geometry" />
        </mxCell>
        <mxCell id="DbBbhRMSSOa6X9QHdNMr-27" value="" style="edgeStyle=orthogonalEdgeStyle;rounded=0;orthogonalLoop=1;jettySize=auto;html=1;" parent="1" source="DbBbhRMSSOa6X9QHdNMr-24" target="DbBbhRMSSOa6X9QHdNMr-26" edge="1">
          <mxGeometry relative="1" as="geometry" />
        </mxCell>
        <mxCell id="DbBbhRMSSOa6X9QHdNMr-24" value="Stories" style="whiteSpace=wrap;html=1;fontSize=14;fontFamily=Comic Sans MS;fillColor=#e51400;strokeColor=#B20000;fontColor=#ffffff;" parent="1" vertex="1">
          <mxGeometry x="390" y="260" width="120" height="60" as="geometry" />
        </mxCell>
        <mxCell id="DbBbhRMSSOa6X9QHdNMr-26" value="User Stories" style="ellipse;whiteSpace=wrap;html=1;fontSize=14;fontFamily=Comic Sans MS;fillColor=#d5e8d4;strokeColor=#82b366;gradientColor=#97d077;" parent="1" vertex="1">
          <mxGeometry x="390" y="125" width="120" height="60" as="geometry" />
        </mxCell>
        <mxCell id="VwA648GKsSek5Qf0YUTY-2" value="User Name" style="ellipse;whiteSpace=wrap;html=1;fontSize=14;fontFamily=Comic Sans MS;fillColor=#d5e8d4;strokeColor=#82b366;gradientColor=#97d077;" vertex="1" parent="1">
          <mxGeometry x="240" y="135" width="120" height="60" as="geometry" />
        </mxCell>
        <mxCell id="VwA648GKsSek5Qf0YUTY-3" value="" style="endArrow=classic;html=1;rounded=0;" edge="1" parent="1" source="DbBbhRMSSOa6X9QHdNMr-24" target="VwA648GKsSek5Qf0YUTY-2">
          <mxGeometry width="50" height="50" relative="1" as="geometry">
            <mxPoint x="330" y="270" as="sourcePoint" />
            <mxPoint x="380" y="220" as="targetPoint" />
          </mxGeometry>
        </mxCell>
      </root>
    </mxGraphModel>
  </diagram>
</mxfile>
